{"asset":{"version":"2.0","generator":"Blockbench 3.8.4 glTF exporter"},"scenes":[{"nodes":[2,5,8,11,14,17],"name":"blockbench_export"}],"scene":0,"nodes":[{"translation":[0.11875,-0.75,0],"name":"f2408c48-19ba-5b99-debc-ff1d537768d5","mesh":0},{"translation":[0.11875,-0.75,0],"name":"dfe38fd6-db74-6e58-ad4d-223a17129fe9","mesh":1},{"rotation":[0.08714246850588939,-0.0015210774457754552,-0.017385994761764084,0.9960429728140489],"translation":[-0.11875,0.75,0],"name":"LeftLeg","children":[0,1]},{"translation":[-0.11875,-0.75,0],"name":"093f2855-8554-d964-4ef0-61dfcca90bec","mesh":2},{"translation":[-0.11875,-0.75,0],"name":"89bf2d4e-5a66-3e1c-2604-9e45026c9074","mesh":3},{"rotation":[-0.09583115474787583,-0.0016727390282702394,0.01737205902003089,0.9952445947048578],"translation":[0.11875,0.75,0],"name":"RightLeg","children":[3,4]},{"translation":[0.3125,-1.34375,0],"name":"1e5c1c56-8440-bb35-1792-ce2d1e42ddfb","mesh":4},{"translation":[0.3125,-1.34375,0],"name":"67073798-a643-b308-cca5-203070ce8874","mesh":5},{"rotation":[-0.10452846326765346,0,0,0.9945218953682733],"translation":[-0.3125,1.34375,0],"name":"LeftArm","children":[6,7]},{"translation":[-0.3125,-1.34375,0],"name":"ba969546-b803-3ef6-8540-df23e194d30b","mesh":6},{"translation":[-0.3125,-1.34375,0],"name":"82f7cfae-790a-9852-7c56-5851d7f03980","mesh":7},{"rotation":[0.08715574274765817,0,0,0.9961946980917455],"translation":[0.3125,1.34375,0],"name":"RightArm","children":[9,10]},{"translation":[0,-1.5,0],"name":"6abed4d6-af47-4347-53d6-5e72327a45ed","mesh":8},{"translation":[0,-1.5,0],"name":"2238fed7-087f-155b-28e7-59dd1b8e4b29","mesh":9},{"translation":[0,1.5,0],"name":"Body","children":[12,13]},{"translation":[0,-1.5,0],"name":"1039757e-1d6e-02c9-4e4c-5a41f68b6484","mesh":10},{"translation":[0,-1.5,0],"name":"1fde62c9-7413-4a90-f3eb-b14923fd32c8","mesh":11},{"rotation":[0.05228614400929896,-0.043559608510925024,0.002282862348496242,0.997679060715675],"translation":[0,1.5,0],"name":"Head","children":[15,16]}],"bufferViews":[{"buffer":0,"byteOffset":0,"byteLength":432,"target":34962,"byteStride":12},{"buffer":0,"byteOffset":432,"byteLength":432,"target":34962,"byteStride":12},{"buffer":0,"byteOffset":864,"byteLength":288,"target":34962,"byteStride":8},{"buffer":0,"byteOffset":1152,"byteLength":432,"target":34962,"byteStride":12},{"buffer":0,"byteOffset":1584,"byteLength":432,"target":34962,"byteStride":12},{"buffer":0,"byteOffset":2016,"byteLength":288,"target":34962,"byteStride":8},{"buffer":0,"byteOffset":2304,"byteLength":432,"target":34962,"byteStride":12},{"buffer":0,"byteOffset":2736,"byteLength":432,"target":34962,"byteStride":12},{"buffer":0,"byteOffset":3168,"byteLength":288,"target":34962,"byteStride":8},{"buffer":0,"byteOffset":3456,"byteLength":432,"target":34962,"byteStride":12},{"buffer":0,"byteOffset":3888,"byteLength":432,"target":34962,"byteStride":12},{"buffer":0,"byteOffset":4320,"byteLength":288,"target":34962,"byteStride":8},{"buffer":0,"byteOffset":4608,"byteLength":432,"target":34962,"byteStride":12},{"buffer":0,"byteOffset":5040,"byteLength":432,"target":34962,"byteStride":12},{"buffer":0,"byteOffset":5472,"byteLength":288,"target":34962,"byteStride":8},{"buffer":0,"byteOffset":5760,"byteLength":432,"target":34962,"byteStride":12},{"buffer":0,"byteOffset":6192,"byteLength":432,"target":34962,"byteStride":12},{"buffer":0,"byteOffset":6624,"byteLength":288,"target":34962,"byteStride":8},{"buffer":0,"byteOffset":6912,"byteLength":432,"target":34962,"byteStride":12},{"buffer":0,"byteOffset":7344,"byteLength":432,"target":34962,"byteStride":12},{"buffer":0,"byteOffset":7776,"byteLength":288,"target":34962,"byteStride":8},{"buffer":0,"byteOffset":8064,"byteLength":432,"target":34962,"byteStride":12},{"buffer":0,"byteOffset":8496,"byteLength":432,"target":34962,"byteStride":12},{"buffer":0,"byteOffset":8928,"byteLength":288,"target":34962,"byteStride":8},{"buffer":0,"byteOffset":9216,"byteLength":432,"target":34962,"byteStride":12},{"buffer":0,"byteOffset":9648,"byteLength":432,"target":34962,"byteStride":12},{"buffer":0,"byteOffset":10080,"byteLength":288,"target":34962,"byteStride":8},{"buffer":0,"byteOffset":10368,"byteLength":432,"target":34962,"byteStride":12},{"buffer":0,"byteOffset":10800,"byteLength":432,"target":34962,"byteStride":12},{"buffer":0,"byteOffset":11232,"byteLength":288,"target":34962,"byteStride":8},{"buffer":0,"byteOffset":11520,"byteLength":432,"target":34962,"byteStride":12},{"buffer":0,"byteOffset":11952,"byteLength":432,"target":34962,"byteStride":12},{"buffer":0,"byteOffset":12384,"byteLength":288,"target":34962,"byteStride":8},{"buffer":0,"byteOffset":12672,"byteLength":432,"target":34962,"byteStride":12},{"buffer":0,"byteOffset":13104,"byteLength":432,"target":34962,"byteStride":12},{"buffer":0,"byteOffset":13536,"byteLength":288,"target":34962,"byteStride":8}],"buffers":[{"byteLength":13824,"uri":"data:application/octet-stream;base64,"}],"accessors":[{"bufferView":0,"componentType":5126,"count":36,"max":[0.0062500000931322575,0.75,0.125],"min":[-0.24375000596046448,0,-0.125],"type":"VEC3"},{"bufferView":1,"componentType":5126,"count":36,"max":[1,1,1],"min":[-1,-1,-1],"type":"VEC3"},{"bufferView":2,"componentType":5126,"count":36,"max":[0.499755859375,0.249755859375],"min":[0.250244140625,0.000244140625],"type":"VEC2"},{"bufferView":3,"componentType":5126,"count":36,"max":[0.02187499962747097,0.765625,0.140625],"min":[-0.2593750059604645,-0.015625,-0.140625],"type":"VEC3"},{"bufferView":4,"componentType":5126,"count":36,"max":[1,1,1],"min":[-1,-1,-1],"type":"VEC3"},{"bufferView":5,"componentType":5126,"count":36,"max":[0.249755859375,0.249755859375],"min":[0.000244140625,0.000244140625],"type":"VEC2"},{"bufferView":6,"componentType":5126,"count":36,"max":[0.24375000596046448,0.75,0.125],"min":[-0.0062500000931322575,0,-0.125],"type":"VEC3"},{"bufferView":7,"componentType":5126,"count":36,"max":[1,1,1],"min":[-1,-1,-1],"type":"VEC3"},{"bufferView":8,"componentType":5126,"count":36,"max":[0.249755859375,0.749755859375],"min":[0.000244140625,0.500244140625],"type":"VEC2"},{"bufferView":9,"componentType":5126,"count":36,"max":[0.2593750059604645,0.765625,0.140625],"min":[-0.02187499962747097,-0.015625,-0.140625],"type":"VEC3"},{"bufferView":10,"componentType":5126,"count":36,"max":[1,1,1],"min":[-1,-1,-1],"type":"VEC3"},{"bufferView":11,"componentType":5126,"count":36,"max":[0.249755859375,0.499755859375],"min":[0.000244140625,0.250244140625],"type":"VEC2"},{"bufferView":12,"componentType":5126,"count":36,"max":[-0.25,1.46875,0.125],"min":[-0.4375,0.71875,-0.125],"type":"VEC3"},{"bufferView":13,"componentType":5126,"count":36,"max":[1,1,1],"min":[-1,-1,-1],"type":"VEC3"},{"bufferView":14,"componentType":5126,"count":36,"max":[0.718505859375,0.249755859375],"min":[0.500244140625,0.000244140625],"type":"VEC2"},{"bufferView":15,"componentType":5126,"count":36,"max":[-0.234375,1.484375,0.140625],"min":[-0.453125,0.703125,-0.140625],"type":"VEC3"},{"bufferView":16,"componentType":5126,"count":36,"max":[1,1,1],"min":[-1,-1,-1],"type":"VEC3"},{"bufferView":17,"componentType":5126,"count":36,"max":[0.968505859375,0.249755859375],"min":[0.750244140625,0.000244140625],"type":"VEC2"},{"bufferView":18,"componentType":5126,"count":36,"max":[0.4375,1.46875,0.125],"min":[0.25,0.71875,-0.125],"type":"VEC3"},{"bufferView":19,"componentType":5126,"count":36,"max":[1,1,1],"min":[-1,-1,-1],"type":"VEC3"},{"bufferView":20,"componentType":5126,"count":36,"max":[0.843505859375,0.749755859375],"min":[0.625244140625,0.500244140625],"type":"VEC2"},{"bufferView":21,"componentType":5126,"count":36,"max":[0.453125,1.484375,0.140625],"min":[0.234375,0.703125,-0.140625],"type":"VEC3"},{"bufferView":22,"componentType":5126,"count":36,"max":[1,1,1],"min":[-1,-1,-1],"type":"VEC3"},{"bufferView":23,"componentType":5126,"count":36,"max":[0.843505859375,0.499755859375],"min":[0.625244140625,0.250244140625],"type":"VEC2"},{"bufferView":24,"componentType":5126,"count":36,"max":[0.25,1.5,0.125],"min":[-0.25,0.75,-0.125],"type":"VEC3"},{"bufferView":25,"componentType":5126,"count":36,"max":[1,1,1],"min":[-1,-1,-1],"type":"VEC3"},{"bufferView":26,"componentType":5126,"count":36,"max":[0.624755859375,0.749755859375],"min":[0.250244140625,0.500244140625],"type":"VEC2"},{"bufferView":27,"componentType":5126,"count":36,"max":[0.265625,1.515625,0.140625],"min":[-0.265625,0.734375,-0.140625],"type":"VEC3"},{"bufferView":28,"componentType":5126,"count":36,"max":[1,1,1],"min":[-1,-1,-1],"type":"VEC3"},{"bufferView":29,"componentType":5126,"count":36,"max":[0.624755859375,0.499755859375],"min":[0.250244140625,0.250244140625],"type":"VEC2"},{"bufferView":30,"componentType":5126,"count":36,"max":[0.25,2,0.25],"min":[-0.25,1.5,-0.25],"type":"VEC3"},{"bufferView":31,"componentType":5126,"count":36,"max":[1,1,1],"min":[-1,-1,-1],"type":"VEC3"},{"bufferView":32,"componentType":5126,"count":36,"max":[0.499755859375,0.999755859375],"min":[0.000244140625,0.750244140625],"type":"VEC2"},{"bufferView":33,"componentType":5126,"count":36,"max":[0.28125,2.03125,0.28125],"min":[-0.28125,1.46875,-0.28125],"type":"VEC3"},{"bufferView":34,"componentType":5126,"count":36,"max":[1,1,1],"min":[-1,-1,-1],"type":"VEC3"},{"bufferView":35,"componentType":5126,"count":36,"max":[0.999755859375,0.999755859375],"min":[0.500244140625,0.750244140625],"type":"VEC2"}],"materials":[{"pbrMetallicRoughness":{"metallicFactor":0,"roughnessFactor":1,"baseColorTexture":{"index":0}},"alphaMode":"MASK","alphaCutoff":0.05,"doubleSided":true}],"textures":[{"sampler":0,"source":0}],"samplers":[{"magFilter":9728,"minFilter":9728,"wrapS":33071,"wrapT":33071}],"images":[{"mimeType":"image/png","uri":"data:image/png;base64,"}],"meshes":[{"primitives":[{"mode":4,"attributes":{"POSITION":0,"NORMAL":1,"TEXCOORD_0":2},"material":0}]},{"primitives":[{"mode":4,"attributes":{"POSITION":3,"NORMAL":4,"TEXCOORD_0":5},"material":0}]},{"primitives":[{"mode":4,"attributes":{"POSITION":6,"NORMAL":7,"TEXCOORD_0":8},"material":0}]},{"primitives":[{"mode":4,"attributes":{"POSITION":9,"NORMAL":10,"TEXCOORD_0":11},"material":0}]},{"primitives":[{"mode":4,"attributes":{"POSITION":12,"NORMAL":13,"TEXCOORD_0":14},"material":0}]},{"primitives":[{"mode":4,"attributes":{"POSITION":15,"NORMAL":16,"TEXCOORD_0":17},"material":0}]},{"primitives":[{"mode":4,"attributes":{"POSITION":18,"NORMAL":19,"TEXCOORD_0":20},"material":0}]},{"primitives":[{"mode":4,"attributes":{"POSITION":21,"NORMAL":22,"TEXCOORD_0":23},"material":0}]},{"primitives":[{"mode":4,"attributes":{"POSITION":24,"NORMAL":25,"TEXCOORD_0":26},"material":0}]},{"primitives":[{"mode":4,"attributes":{"POSITION":27,"NORMAL":28,"TEXCOORD_0":29},"material":0}]},{"primitives":[{"mode":4,"attributes":{"POSITION":30,"NORMAL":31,"TEXCOORD_0":32},"material":0}]},{"primitives":[{"mode":4,"attributes":{"POSITION":33,"NORMAL":34,"TEXCOORD_0":35},"material":0}]}]}