{"asset":{"version":"2.0","generator":"Blockbench 3.8.4 glTF exporter"},"scenes":[{"nodes":[0,4,8,12,16,26,34],"name":"blockbench_export"}],"scene":0,"nodes":[{"name":"bone"},{"translation":[0.11875,-0.75,0],"name":"19662181-7f60-db10-68e3-01bfa6df6543","mesh":0},{"translation":[0.11875,-0.75,0],"name":"61121600-e5ab-06f9-f763-b80984b3c3f2","mesh":1},{"translation":[0.11875,-0.75,0],"name":"79f3219e-d7dd-b032-3402-f3d0cca80bdf","mesh":2},{"rotation":[0.08714246850588939,-0.0015210774457754552,-0.017385994761764084,0.9960429728140489],"translation":[-0.11875,0.75,0],"name":"LeftLeg","children":[1,2,3]},{"translation":[-0.11875,-0.75,0],"name":"aff603d8-d052-a0e3-e83e-9d156d7d9e27","mesh":3},{"translation":[-0.11875,-0.75,0],"name":"08261186-0acb-e0d3-991f-9da8550a9f24","mesh":4},{"translation":[-0.11875,-0.75,0],"name":"305d3f82-a93f-a098-d751-63620ad87b81","mesh":5},{"rotation":[-0.09583115474787583,-0.0016727390282702394,0.01737205902003089,0.9952445947048578],"translation":[0.11875,0.75,0],"name":"RightLeg","children":[5,6,7]},{"translation":[0.3125,-1.34375,0],"name":"febbdc6f-c319-df66-e904-29ee75adb0af","mesh":6},{"translation":[0.3125,-1.34375,0],"name":"c8deb01a-d346-31fa-dce1-efe2e2353e54","mesh":7},{"translation":[0.3125,-1.34375,0],"name":"772f5163-aa46-6566-85e7-00c3ec7ccd10","mesh":8},{"rotation":[-0.10452846326765346,0,0,0.9945218953682733],"translation":[-0.3125,1.34375,0],"name":"LeftArm","children":[9,10,11]},{"translation":[-0.3125,-1.34375,0],"name":"6b91fff2-da84-201f-cace-3af94450e740","mesh":9},{"translation":[-0.3125,-1.34375,0],"name":"ac4ebe29-7a3c-0c8b-1e68-22ea6c7c1854","mesh":10},{"translation":[-0.3125,-1.34375,0],"name":"f87590a8-b53f-ff5b-03d5-840cecc2ea3a","mesh":11},{"rotation":[0.08715574274765817,0,0,0.9961946980917455],"translation":[0.3125,1.34375,0],"name":"RightArm","children":[13,14,15]},{"translation":[0,-1.5,0],"name":"681b2a1d-8c38-87ff-193c-01bb318905ef","mesh":12},{"translation":[0,-1.5,0],"name":"f5f02bc4-c98d-0b32-b626-6c9e33b38a70","mesh":13},{"translation":[0,-1.5,0],"name":"8b32a347-2606-3e48-02c4-76003e593818","mesh":14},{"translation":[0,-1.5,0],"name":"d2fa588a-57aa-1c90-7e9f-e28966a5eb69","mesh":15},{"translation":[0,-1.5,0],"name":"0e747425-5241-f675-6036-b0aa13de4ecf","mesh":16},{"translation":[0,-1.5,0],"name":"b8177f39-221e-2ace-9b4f-5c6b175fc77c","mesh":17},{"translation":[0,-1.5,0],"name":"4a9fe2a6-444d-cc37-d7bd-d5737f255849","mesh":18},{"translation":[0,-1.5,0],"name":"8c268700-5a42-0618-03c4-b214484beaf2","mesh":19},{"translation":[0,-1.5,0],"name":"9eb2e12c-3a94-8d0d-bb79-334c06a92abb","mesh":20},{"translation":[0,1.5,0],"name":"Body","children":[17,18,19,20,21,22,23,24,25]},{"translation":[0,-1.5,0],"name":"3640273e-c3a9-7867-fa9f-c94236976868","mesh":21},{"translation":[0,-1.5,0],"name":"b949c6ec-6012-2790-bada-d1ff78e0fe94","mesh":22},{"translation":[0,-1.5,0],"name":"5d43a7f9-6afb-b98f-774a-3fc190fad56e","mesh":23},{"translation":[0,-1.5,0],"name":"31c82a66-8932-ba99-57d7-29d2987d17ce","mesh":24},{"translation":[0,-1.5,0],"name":"6d5d3ab4-b639-db0d-3ce8-e8e0abb0242d","mesh":25},{"translation":[0,-1.5,0],"name":"42456269-f817-0ddc-4b4a-84f57b10757c","mesh":26},{"translation":[0,-1.5,0],"name":"b9203b5f-e7db-5a95-f7d0-c2a4eec6fb17","mesh":27},{"rotation":[0.05233595624294383,0,0,0.9986295347545738],"translation":[0,1.5,0],"name":"Head","children":[27,28,29,30,31,32,33]}],"bufferViews":[{"buffer":0,"byteOffset":0,"byteLength":432,"target":34962,"byteStride":12},{"buffer":0,"byteOffset":432,"byteLength":432,"target":34962,"byteStride":12},{"buffer":0,"byteOffset":864,"byteLength":288,"target":34962,"byteStride":8},{"buffer":0,"byteOffset":1152,"byteLength":432,"target":34962,"byteStride":12},{"buffer":0,"byteOffset":1584,"byteLength":432,"target":34962,"byteStride":12},{"buffer":0,"byteOffset":2016,"byteLength":288,"target":34962,"byteStride":8},{"buffer":0,"byteOffset":2304,"byteLength":432,"target":34962,"byteStride":12},{"buffer":0,"byteOffset":2736,"byteLength":432,"target":34962,"byteStride":12},{"buffer":0,"byteOffset":3168,"byteLength":288,"target":34962,"byteStride":8},{"buffer":0,"byteOffset":3456,"byteLength":432,"target":34962,"byteStride":12},{"buffer":0,"byteOffset":3888,"byteLength":432,"target":34962,"byteStride":12},{"buffer":0,"byteOffset":4320,"byteLength":288,"target":34962,"byteStride":8},{"buffer":0,"byteOffset":4608,"byteLength":432,"target":34962,"byteStride":12},{"buffer":0,"byteOffset":5040,"byteLength":432,"target":34962,"byteStride":12},{"buffer":0,"byteOffset":5472,"byteLength":288,"target":34962,"byteStride":8},{"buffer":0,"byteOffset":5760,"byteLength":432,"target":34962,"byteStride":12},{"buffer":0,"byteOffset":6192,"byteLength":432,"target":34962,"byteStride":12},{"buffer":0,"byteOffset":6624,"byteLength":288,"target":34962,"byteStride":8},{"buffer":0,"byteOffset":6912,"byteLength":432,"target":34962,"byteStride":12},{"buffer":0,"byteOffset":7344,"byteLength":432,"target":34962,"byteStride":12},{"buffer":0,"byteOffset":7776,"byteLength":288,"target":34962,"byteStride":8},{"buffer":0,"byteOffset":8064,"byteLength":432,"target":34962,"byteStride":12},{"buffer":0,"byteOffset":8496,"byteLength":432,"target":34962,"byteStride":12},{"buffer":0,"byteOffset":8928,"byteLength":288,"target":34962,"byteStride":8},{"buffer":0,"byteOffset":9216,"byteLength":432,"target":34962,"byteStride":12},{"buffer":0,"byteOffset":9648,"byteLength":432,"target":34962,"byteStride":12},{"buffer":0,"byteOffset":10080,"byteLength":288,"target":34962,"byteStride":8},{"buffer":0,"byteOffset":10368,"byteLength":432,"target":34962,"byteStride":12},{"buffer":0,"byteOffset":10800,"byteLength":432,"target":34962,"byteStride":12},{"buffer":0,"byteOffset":11232,"byteLength":288,"target":34962,"byteStride":8},{"buffer":0,"byteOffset":11520,"byteLength":432,"target":34962,"byteStride":12},{"buffer":0,"byteOffset":11952,"byteLength":432,"target":34962,"byteStride":12},{"buffer":0,"byteOffset":12384,"byteLength":288,"target":34962,"byteStride":8},{"buffer":0,"byteOffset":12672,"byteLength":432,"target":34962,"byteStride":12},{"buffer":0,"byteOffset":13104,"byteLength":432,"target":34962,"byteStride":12},{"buffer":0,"byteOffset":13536,"byteLength":288,"target":34962,"byteStride":8},{"buffer":0,"byteOffset":13824,"byteLength":432,"target":34962,"byteStride":12},{"buffer":0,"byteOffset":14256,"byteLength":432,"target":34962,"byteStride":12},{"buffer":0,"byteOffset":14688,"byteLength":288,"target":34962,"byteStride":8},{"buffer":0,"byteOffset":14976,"byteLength":432,"target":34962,"byteStride":12},{"buffer":0,"byteOffset":15408,"byteLength":432,"target":34962,"byteStride":12},{"buffer":0,"byteOffset":15840,"byteLength":288,"target":34962,"byteStride":8},{"buffer":0,"byteOffset":16128,"byteLength":432,"target":34962,"byteStride":12},{"buffer":0,"byteOffset":16560,"byteLength":432,"target":34962,"byteStride":12},{"buffer":0,"byteOffset":16992,"byteLength":288,"target":34962,"byteStride":8},{"buffer":0,"byteOffset":17280,"byteLength":432,"target":34962,"byteStride":12},{"buffer":0,"byteOffset":17712,"byteLength":432,"target":34962,"byteStride":12},{"buffer":0,"byteOffset":18144,"byteLength":288,"target":34962,"byteStride":8},{"buffer":0,"byteOffset":18432,"byteLength":432,"target":34962,"byteStride":12},{"buffer":0,"byteOffset":18864,"byteLength":432,"target":34962,"byteStride":12},{"buffer":0,"byteOffset":19296,"byteLength":288,"target":34962,"byteStride":8},{"buffer":0,"byteOffset":19584,"byteLength":432,"target":34962,"byteStride":12},{"buffer":0,"byteOffset":20016,"byteLength":432,"target":34962,"byteStride":12},{"buffer":0,"byteOffset":20448,"byteLength":288,"target":34962,"byteStride":8},{"buffer":0,"byteOffset":20736,"byteLength":432,"target":34962,"byteStride":12},{"buffer":0,"byteOffset":21168,"byteLength":432,"target":34962,"byteStride":12},{"buffer":0,"byteOffset":21600,"byteLength":288,"target":34962,"byteStride":8},{"buffer":0,"byteOffset":21888,"byteLength":432,"target":34962,"byteStride":12},{"buffer":0,"byteOffset":22320,"byteLength":432,"target":34962,"byteStride":12},{"buffer":0,"byteOffset":22752,"byteLength":288,"target":34962,"byteStride":8},{"buffer":0,"byteOffset":23040,"byteLength":432,"target":34962,"byteStride":12},{"buffer":0,"byteOffset":23472,"byteLength":432,"target":34962,"byteStride":12},{"buffer":0,"byteOffset":23904,"byteLength":288,"target":34962,"byteStride":8},{"buffer":0,"byteOffset":24192,"byteLength":432,"target":34962,"byteStride":12},{"buffer":0,"byteOffset":24624,"byteLength":432,"target":34962,"byteStride":12},{"buffer":0,"byteOffset":25056,"byteLength":288,"target":34962,"byteStride":8},{"buffer":0,"byteOffset":25344,"byteLength":432,"target":34962,"byteStride":12},{"buffer":0,"byteOffset":25776,"byteLength":432,"target":34962,"byteStride":12},{"buffer":0,"byteOffset":26208,"byteLength":288,"target":34962,"byteStride":8},{"buffer":0,"byteOffset":26496,"byteLength":432,"target":34962,"byteStride":12},{"buffer":0,"byteOffset":26928,"byteLength":432,"target":34962,"byteStride":12},{"buffer":0,"byteOffset":27360,"byteLength":288,"target":34962,"byteStride":8},{"buffer":0,"byteOffset":27648,"byteLength":432,"target":34962,"byteStride":12},{"buffer":0,"byteOffset":28080,"byteLength":432,"target":34962,"byteStride":12},{"buffer":0,"byteOffset":28512,"byteLength":288,"target":34962,"byteStride":8},{"buffer":0,"byteOffset":28800,"byteLength":432,"target":34962,"byteStride":12},{"buffer":0,"byteOffset":29232,"byteLength":432,"target":34962,"byteStride":12},{"buffer":0,"byteOffset":29664,"byteLength":288,"target":34962,"byteStride":8},{"buffer":0,"byteOffset":29952,"byteLength":432,"target":34962,"byteStride":12},{"buffer":0,"byteOffset":30384,"byteLength":432,"target":34962,"byteStride":12},{"buffer":0,"byteOffset":30816,"byteLength":288,"target":34962,"byteStride":8},{"buffer":0,"byteOffset":31104,"byteLength":432,"target":34962,"byteStride":12},{"buffer":0,"byteOffset":31536,"byteLength":432,"target":34962,"byteStride":12},{"buffer":0,"byteOffset":31968,"byteLength":288,"target":34962,"byteStride":8}],"buffers":[{"byteLength":32256,"uri":"data:application/octet-stream;base64,"}],"accessors":[{"bufferView":0,"componentType":5126,"count":36,"max":[0.0062500000931322575,0.75,0.125],"min":[-0.24375000596046448,0,-0.125],"type":"VEC3"},{"bufferView":1,"componentType":5126,"count":36,"max":[1,1,1],"min":[-1,-1,-1],"type":"VEC3"},{"bufferView":2,"componentType":5126,"count":36,"max":[0.499755859375,0.249755859375],"min":[0.250244140625,0.000244140625],"type":"VEC2"},{"bufferView":3,"componentType":5126,"count":36,"max":[0.02187499962747097,0.765625,0.140625],"min":[-0.2593750059604645,-0.015625,-0.140625],"type":"VEC3"},{"bufferView":4,"componentType":5126,"count":36,"max":[1,1,1],"min":[-1,-1,-1],"type":"VEC3"},{"bufferView":5,"componentType":5126,"count":36,"max":[0.249755859375,0.249755859375],"min":[0.000244140625,0.000244140625],"type":"VEC2"},{"bufferView":6,"componentType":5126,"count":36,"max":[-0.0625,0.9375,0.0625],"min":[-0.1875,0.0625,-0.0625],"type":"VEC3"},{"bufferView":7,"componentType":5126,"count":36,"max":[1,1,1],"min":[-1,-1,-1],"type":"VEC3"},{"bufferView":8,"componentType":5126,"count":36,"max":[1.062255859375,0.687255859375],"min":[0.937744140625,0.437744140625],"type":"VEC2"},{"bufferView":9,"componentType":5126,"count":36,"max":[0.24375000596046448,0.75,0.125],"min":[-0.0062500000931322575,0,-0.125],"type":"VEC3"},{"bufferView":10,"componentType":5126,"count":36,"max":[1,1,1],"min":[-1,-1,-1],"type":"VEC3"},{"bufferView":11,"componentType":5126,"count":36,"max":[0.249755859375,0.749755859375],"min":[0.000244140625,0.500244140625],"type":"VEC2"},{"bufferView":12,"componentType":5126,"count":36,"max":[0.2593750059604645,0.765625,0.140625],"min":[-0.02187499962747097,-0.015625,-0.140625],"type":"VEC3"},{"bufferView":13,"componentType":5126,"count":36,"max":[1,1,1],"min":[-1,-1,-1],"type":"VEC3"},{"bufferView":14,"componentType":5126,"count":36,"max":[0.249755859375,0.499755859375],"min":[0.000244140625,0.250244140625],"type":"VEC2"},{"bufferView":15,"componentType":5126,"count":36,"max":[0.1875,0.9375,0.0625],"min":[0.0625,0.0625,-0.0625],"type":"VEC3"},{"bufferView":16,"componentType":5126,"count":36,"max":[1,1,1],"min":[-1,-1,-1],"type":"VEC3"},{"bufferView":17,"componentType":5126,"count":36,"max":[1.062255859375,0.687255859375],"min":[0.937744140625,0.437744140625],"type":"VEC2"},{"bufferView":18,"componentType":5126,"count":36,"max":[-0.25,1.46875,0.125],"min":[-0.4375,0.71875,-0.125],"type":"VEC3"},{"bufferView":19,"componentType":5126,"count":36,"max":[1,1,1],"min":[-1,-1,-1],"type":"VEC3"},{"bufferView":20,"componentType":5126,"count":36,"max":[0.718505859375,0.249755859375],"min":[0.500244140625,0.000244140625],"type":"VEC2"},{"bufferView":21,"componentType":5126,"count":36,"max":[-0.234375,1.484375,0.140625],"min":[-0.453125,0.703125,-0.140625],"type":"VEC3"},{"bufferView":22,"componentType":5126,"count":36,"max":[1,1,1],"min":[-1,-1,-1],"type":"VEC3"},{"bufferView":23,"componentType":5126,"count":36,"max":[0.968505859375,0.249755859375],"min":[0.750244140625,0.000244140625],"type":"VEC2"},{"bufferView":24,"componentType":5126,"count":36,"max":[-0.3125,1.4375,0.0625],"min":[-0.375,0.8125,-0.0625],"type":"VEC3"},{"bufferView":25,"componentType":5126,"count":36,"max":[1,1,1],"min":[-1,-1,-1],"type":"VEC3"},{"bufferView":26,"componentType":5126,"count":36,"max":[1.031005859375,0.687255859375],"min":[0.937744140625,0.500244140625],"type":"VEC2"},{"bufferView":27,"componentType":5126,"count":36,"max":[0.4375,1.46875,0.125],"min":[0.25,0.71875,-0.125],"type":"VEC3"},{"bufferView":28,"componentType":5126,"count":36,"max":[1,1,1],"min":[-1,-1,-1],"type":"VEC3"},{"bufferView":29,"componentType":5126,"count":36,"max":[0.843505859375,0.749755859375],"min":[0.625244140625,0.500244140625],"type":"VEC2"},{"bufferView":30,"componentType":5126,"count":36,"max":[0.453125,1.484375,0.140625],"min":[0.234375,0.703125,-0.140625],"type":"VEC3"},{"bufferView":31,"componentType":5126,"count":36,"max":[1,1,1],"min":[-1,-1,-1],"type":"VEC3"},{"bufferView":32,"componentType":5126,"count":36,"max":[0.843505859375,0.499755859375],"min":[0.625244140625,0.250244140625],"type":"VEC2"},{"bufferView":33,"componentType":5126,"count":36,"max":[0.375,1.4375,0.0625],"min":[0.3125,0.8125,-0.0625],"type":"VEC3"},{"bufferView":34,"componentType":5126,"count":36,"max":[1,1,1],"min":[-1,-1,-1],"type":"VEC3"},{"bufferView":35,"componentType":5126,"count":36,"max":[1.031005859375,0.687255859375],"min":[0.937744140625,0.500244140625],"type":"VEC2"},{"bufferView":36,"componentType":5126,"count":36,"max":[0.25,1.5,0.125],"min":[-0.25,0.75,-0.125],"type":"VEC3"},{"bufferView":37,"componentType":5126,"count":36,"max":[1,1,1],"min":[-1,-1,-1],"type":"VEC3"},{"bufferView":38,"componentType":5126,"count":36,"max":[0.624755859375,0.749755859375],"min":[0.250244140625,0.500244140625],"type":"VEC2"},{"bufferView":39,"componentType":5126,"count":36,"max":[0.265625,1.515625,0.140625],"min":[-0.265625,0.734375,-0.140625],"type":"VEC3"},{"bufferView":40,"componentType":5126,"count":36,"max":[1,1,1],"min":[-1,-1,-1],"type":"VEC3"},{"bufferView":41,"componentType":5126,"count":36,"max":[0.624755859375,0.499755859375],"min":[0.250244140625,0.250244140625],"type":"VEC2"},{"bufferView":42,"componentType":5126,"count":36,"max":[0.1875,1.0625,0.0625],"min":[-0.1875,1,-0.0625],"type":"VEC3"},{"bufferView":43,"componentType":5126,"count":36,"max":[1,1,1],"min":[-1,-1,-1],"type":"VEC3"},{"bufferView":44,"componentType":5126,"count":36,"max":[1.187255859375,0.687255859375],"min":[0.937744140625,0.640869140625],"type":"VEC2"},{"bufferView":45,"componentType":5126,"count":36,"max":[0.0625,1.5,0.0625],"min":[-0.0625,0.8125,-0.0625],"type":"VEC3"},{"bufferView":46,"componentType":5126,"count":36,"max":[1,1,1],"min":[-1,-1,-1],"type":"VEC3"},{"bufferView":47,"componentType":5126,"count":36,"max":[1.062255859375,0.687255859375],"min":[0.937744140625,0.484619140625],"type":"VEC2"},{"bufferView":48,"componentType":5126,"count":36,"max":[0.1875,0.9375,0.0625],"min":[-0.1875,0.8125,-0.0625],"type":"VEC3"},{"bufferView":49,"componentType":5126,"count":36,"max":[1,1,1],"min":[-1,-1,-1],"type":"VEC3"},{"bufferView":50,"componentType":5126,"count":36,"max":[1.187255859375,0.687255859375],"min":[0.937744140625,0.625244140625],"type":"VEC2"},{"bufferView":51,"componentType":5126,"count":36,"max":[0.0625,1.8125,0],"min":[-0.0625,1.125,-0.0625],"type":"VEC3"},{"bufferView":52,"componentType":5126,"count":36,"max":[1,1,1],"min":[-1,-1,-1],"type":"VEC3"},{"bufferView":53,"componentType":5126,"count":36,"max":[1.031005859375,0.687255859375],"min":[0.937744140625,0.500244140625],"type":"VEC2"},{"bufferView":54,"componentType":5126,"count":36,"max":[0.1875,1.1875,0.0625],"min":[-0.1875,1.125,-0.0625],"type":"VEC3"},{"bufferView":55,"componentType":5126,"count":36,"max":[1,1,1],"min":[-1,-1,-1],"type":"VEC3"},{"bufferView":56,"componentType":5126,"count":36,"max":[1.187255859375,0.687255859375],"min":[0.937744140625,0.640869140625],"type":"VEC2"},{"bufferView":57,"componentType":5126,"count":36,"max":[0.1875,1.3125,0.0625],"min":[-0.1875,1.25,-0.0625],"type":"VEC3"},{"bufferView":58,"componentType":5126,"count":36,"max":[1,1,1],"min":[-1,-1,-1],"type":"VEC3"},{"bufferView":59,"componentType":5126,"count":36,"max":[1.187255859375,0.687255859375],"min":[0.937744140625,0.640869140625],"type":"VEC2"},{"bufferView":60,"componentType":5126,"count":36,"max":[0.375,1.4375,0.0625],"min":[-0.375,1.375,0],"type":"VEC3"},{"bufferView":61,"componentType":5126,"count":36,"max":[1,1,1],"min":[-1,-1,-1],"type":"VEC3"},{"bufferView":62,"componentType":5126,"count":36,"max":[1.343505859375,0.687255859375],"min":[0.937744140625,0.656494140625],"type":"VEC2"},{"bufferView":63,"componentType":5126,"count":36,"max":[0.25,2,0.25],"min":[-0.25,1.5,-0.25],"type":"VEC3"},{"bufferView":64,"componentType":5126,"count":36,"max":[1,1,1],"min":[-1,-1,-1],"type":"VEC3"},{"bufferView":65,"componentType":5126,"count":36,"max":[0.499755859375,0.999755859375],"min":[0.000244140625,0.750244140625],"type":"VEC2"},{"bufferView":66,"componentType":5126,"count":36,"max":[0.28125,2.03125,0.28125],"min":[-0.28125,1.46875,-0.28125],"type":"VEC3"},{"bufferView":67,"componentType":5126,"count":36,"max":[1,1,1],"min":[-1,-1,-1],"type":"VEC3"},{"bufferView":68,"componentType":5126,"count":36,"max":[0.999755859375,0.999755859375],"min":[0.500244140625,0.750244140625],"type":"VEC2"},{"bufferView":69,"componentType":5126,"count":36,"max":[0.1875,1.6875,-0.125],"min":[0,1.5625,-0.1875],"type":"VEC3"},{"bufferView":70,"componentType":5126,"count":36,"max":[1,1,1],"min":[-1,-1,-1],"type":"VEC3"},{"bufferView":71,"componentType":5126,"count":36,"max":[1.015380859375,0.406005859375],"min":[0.890869140625,0.359619140625],"type":"VEC2"},{"bufferView":72,"componentType":5126,"count":36,"max":[0,1.6875,-0.125],"min":[-0.1875,1.5625,-0.1875],"type":"VEC3"},{"bufferView":73,"componentType":5126,"count":36,"max":[1,1,1],"min":[-1,-1,-1],"type":"VEC3"},{"bufferView":74,"componentType":5126,"count":36,"max":[1.031005859375,0.406005859375],"min":[0.906494140625,0.359619140625],"type":"VEC2"},{"bufferView":75,"componentType":5126,"count":36,"max":[0.125,1.75,0],"min":[-0.125,1.625,-0.125],"type":"VEC3"},{"bufferView":76,"componentType":5126,"count":36,"max":[1,1,1],"min":[-1,-1,-1],"type":"VEC3"},{"bufferView":77,"componentType":5126,"count":36,"max":[1.124755859375,0.609130859375],"min":[0.937744140625,0.547119140625],"type":"VEC2"},{"bufferView":78,"componentType":5126,"count":36,"max":[0.125,1.625,0],"min":[-0.125,1.5625,-0.125],"type":"VEC3"},{"bufferView":79,"componentType":5126,"count":36,"max":[1,1,1],"min":[-1,-1,-1],"type":"VEC3"},{"bufferView":80,"componentType":5126,"count":36,"max":[1.124755859375,0.609130859375],"min":[0.937744140625,0.562744140625],"type":"VEC2"},{"bufferView":81,"componentType":5126,"count":36,"max":[0.125,1.75,0],"min":[-0.125,1.625,-0.125],"type":"VEC3"},{"bufferView":82,"componentType":5126,"count":36,"max":[1,1,1],"min":[-1,-1,-1],"type":"VEC3"},{"bufferView":83,"componentType":5126,"count":36,"max":[1.124755859375,0.609130859375],"min":[0.937744140625,0.547119140625],"type":"VEC2"}],"materials":[{"pbrMetallicRoughness":{"metallicFactor":0,"roughnessFactor":1,"baseColorTexture":{"index":0}},"alphaMode":"MASK","alphaCutoff":0.05,"doubleSided":true,"name":"wHx+vFY8YCBmQAAAABJRU5ErkJggg=="}],"textures":[{"sampler":0,"source":0,"name":"wHx+vFY8YCBmQAAAABJRU5ErkJggg=="}],"samplers":[{"magFilter":9728,"minFilter":9728,"wrapS":33071,"wrapT":33071}],"images":[{"mimeType":"image/png","uri":"data:image/png;base64,"}],"meshes":[{"primitives":[{"mode":4,"attributes":{"POSITION":0,"NORMAL":1,"TEXCOORD_0":2},"material":0}]},{"primitives":[{"mode":4,"attributes":{"POSITION":3,"NORMAL":4,"TEXCOORD_0":5},"material":0}]},{"primitives":[{"mode":4,"attributes":{"POSITION":6,"NORMAL":7,"TEXCOORD_0":8},"material":0}]},{"primitives":[{"mode":4,"attributes":{"POSITION":9,"NORMAL":10,"TEXCOORD_0":11},"material":0}]},{"primitives":[{"mode":4,"attributes":{"POSITION":12,"NORMAL":13,"TEXCOORD_0":14},"material":0}]},{"primitives":[{"mode":4,"attributes":{"POSITION":15,"NORMAL":16,"TEXCOORD_0":17},"material":0}]},{"primitives":[{"mode":4,"attributes":{"POSITION":18,"NORMAL":19,"TEXCOORD_0":20},"material":0}]},{"primitives":[{"mode":4,"attributes":{"POSITION":21,"NORMAL":22,"TEXCOORD_0":23},"material":0}]},{"primitives":[{"mode":4,"attributes":{"POSITION":24,"NORMAL":25,"TEXCOORD_0":26},"material":0}]},{"primitives":[{"mode":4,"attributes":{"POSITION":27,"NORMAL":28,"TEXCOORD_0":29},"material":0}]},{"primitives":[{"mode":4,"attributes":{"POSITION":30,"NORMAL":31,"TEXCOORD_0":32},"material":0}]},{"primitives":[{"mode":4,"attributes":{"POSITION":33,"NORMAL":34,"TEXCOORD_0":35},"material":0}]},{"primitives":[{"mode":4,"attributes":{"POSITION":36,"NORMAL":37,"TEXCOORD_0":38},"material":0}]},{"primitives":[{"mode":4,"attributes":{"POSITION":39,"NORMAL":40,"TEXCOORD_0":41},"material":0}]},{"primitives":[{"mode":4,"attributes":{"POSITION":42,"NORMAL":43,"TEXCOORD_0":44},"material":0}]},{"primitives":[{"mode":4,"attributes":{"POSITION":45,"NORMAL":46,"TEXCOORD_0":47},"material":0}]},{"primitives":[{"mode":4,"attributes":{"POSITION":48,"NORMAL":49,"TEXCOORD_0":50},"material":0}]},{"primitives":[{"mode":4,"attributes":{"POSITION":51,"NORMAL":52,"TEXCOORD_0":53},"material":0}]},{"primitives":[{"mode":4,"attributes":{"POSITION":54,"NORMAL":55,"TEXCOORD_0":56},"material":0}]},{"primitives":[{"mode":4,"attributes":{"POSITION":57,"NORMAL":58,"TEXCOORD_0":59},"material":0}]},{"primitives":[{"mode":4,"attributes":{"POSITION":60,"NORMAL":61,"TEXCOORD_0":62},"material":0}]},{"primitives":[{"mode":4,"attributes":{"POSITION":63,"NORMAL":64,"TEXCOORD_0":65},"material":0}]},{"primitives":[{"mode":4,"attributes":{"POSITION":66,"NORMAL":67,"TEXCOORD_0":68},"material":0}]},{"primitives":[{"mode":4,"attributes":{"POSITION":69,"NORMAL":70,"TEXCOORD_0":71},"material":0}]},{"primitives":[{"mode":4,"attributes":{"POSITION":72,"NORMAL":73,"TEXCOORD_0":74},"material":0}]},{"primitives":[{"mode":4,"attributes":{"POSITION":75,"NORMAL":76,"TEXCOORD_0":77},"material":0}]},{"primitives":[{"mode":4,"attributes":{"POSITION":78,"NORMAL":79,"TEXCOORD_0":80},"material":0}]},{"primitives":[{"mode":4,"attributes":{"POSITION":81,"NORMAL":82,"TEXCOORD_0":83},"material":0}]}]}